# xmcd CD database file
#
# Track frame offsets:
#	150
#	25575
#	44288
#
# Disc length: 947 seconds
#
# Revision: 4
# Processed by: cddbd v1.5.2PL0 Copyright (c) Steve Scherf et al.
# Submitted via: CDex 1.70beta3
#
DISCID=1803b103
DTITLE=ケツメイシ - また君に会える
DYEAR=2007
DGENRE=JPop
TTITLE0=また君に会える
TTITLE1=ダンス
TTITLE2=サマーデイズ
EXTD=YEAR: 2007
EXTT0=
EXTT1=
EXTT2=
PLAYORDER=
